<?xml version="1.0"?>
<svg xmlns="http://www.w3.org/2000/svg" xmlns:xlink="http://www.w3.org/1999/xlink" xmlns:svgjs="http://svgjs.com/svgjs" version="1.1" width="512" height="512" x="0" y="0" viewBox="0 0 64 64" style="enable-background:new 0 0 512 512" xml:space="preserve" class=""><g><g xmlns="http://www.w3.org/2000/svg"><path d="m43 60h1v2h-1z" fill="#fdfdfd" data-original="#000000" style=""/><path d="m56.532 10.299-1.087-2.172c-1.322-2.646-3.854-4.515-6.771-5.001-.469-.078-.946-.116-1.421-.122 3.123 3.781 5.063 8.442 5.511 13.355l.099 1.091.608-.304 1.755-1.315c1.11-.833 1.773-2.16 1.773-3.548.001-.685-.161-1.371-.467-1.984z" fill="#fdfdfd" data-original="#000000" style=""/><path d="m43 56.602v1.398h1v-2c0-2.847.779-5.674 2.219-8.125-1.581-.221-3.118-.733-4.516-1.504.861 3.34 1.297 6.776 1.297 10.231z" fill="#fdfdfd" data-original="#000000" style=""/><path d="m11 7 .228.304c1.143 1.524 1.772 3.412 1.772 5.316 0 1.422-.353 2.8-.999 4.05l4.999-.564v-.099c0-3.097-.577-6.124-1.692-9.007z" fill="#fdfdfd" data-original="#000000" style=""/><path d="m42.052 31c-.028.667-.048 1.334-.05 2h.998v2h-.995c.004.666.019 1.333.049 2h1.078l.312-2.182c.321-2.254.505-4.542.547-6.818h-1.73c-.034.333-.053.667-.08 1h.819v2z" fill="#fdfdfd" data-original="#000000" style=""/><path d="m44.561 3h-3.711c-.509 0-1.021.042-1.525.126l-5.571.929.77 1.348c1.308 2.288 3.654 3.811 6.276 4.073 3.626.363 6.797 2.656 8.276 5.985l1.421 3.197c.077-.044.147-.098.226-.137l.219-.109-.17-1.87c-.462-5.086-2.671-9.873-6.211-13.542z" fill="#fdfdfd" data-original="#000000" style=""/><path d="m8.601 7.133c-.063-.083-.164-.133-.268-.133-.184 0-.333.149-.333.333v.352c0 .053.012.103.035.149.642 1.284.965 2.653.965 4.02v.292c0 1.367-.323 2.736-.935 3.959-.043.086-.065.182-.065.277 0 .341.277.618.618.618h.46l.102-.012c.188-.015.363-.105.469-.263l.199-.299c.754-1.131 1.152-2.447 1.152-3.806 0-1.475-.487-2.937-1.372-4.116z" fill="#fdfdfd" data-original="#000000" style=""/><path d="m40.602 11.465c-3.265-.327-6.186-2.222-7.813-5.071l-1.137-1.99-14.276 2.38c.734 2.015 1.2 4.097 1.437 6.216h14.187v2h-14.044c.013.336.044.67.044 1.007v.11l20.147 2.519c2.197.274 3.853 2.15 3.853 4.364 0 .066-.007.131-.02.196-.186.928-.338 1.865-.471 2.804h2.491c.553 0 1 .448 1 1 0 2.698-.193 5.423-.575 8.101l-.435 3.041c-.07.492-.492.858-.99.858h-1.817c.115 1.354.282 2.704.504 4.04l.291 1.74c.996.509 2.067.867 3.169 1.057l1.853-13.903v-9.006c0-.762.181-1.524.521-2.205.117-.235.254-.459.407-.671l-1.679-3.779c-1.187-2.674-3.735-4.517-6.647-4.808zm-3.602 3.535h-2v-2h2z" fill="#fdfdfd" data-original="#000000" style=""/></g></g></svg>
