<?xml version="1.0"?>
<svg xmlns="http://www.w3.org/2000/svg" xmlns:xlink="http://www.w3.org/1999/xlink" xmlns:svgjs="http://svgjs.com/svgjs" version="1.1" width="512" height="512" x="0" y="0" viewBox="0 0 64 64" style="enable-background:new 0 0 512 512" xml:space="preserve" class=""><g><g xmlns="http://www.w3.org/2000/svg"><path d="m21 35h8v8h-8z" fill="#ffffff" data-original="#000000" style="" class=""/><path d="m35 49h8v8h-8z" fill="#ffffff" data-original="#000000" style="" class=""/><path d="m9 7h46v8h-46z" fill="#ffffff" data-original="#000000" style="" class=""/><path d="m7 49h8v8h-8z" fill="#ffffff" data-original="#000000" style="" class=""/><path d="m21 49h8v8h-8z" fill="#ffffff" data-original="#000000" style="" class=""/><path d="m7 35h8v8h-8z" fill="#ffffff" data-original="#000000" style="" class=""/><path d="m5 6v23h49.271c-.247 0-.494-.024-.734-.073l-4.733-.946c-.468-.094-.804-.504-.804-.981h-32c0 .552-.448 1-1 1h-6c-1.654 0-3-1.346-3-3v-6c0-.328.161-.635.43-.822.27-.187.614-.23.921-.115l8 3c.39.147.649.52.649.937h32c0-.477.336-.887.804-.98l4.735-.947c.237-.049.484-.073.732-.073 2.056 0 3.729 1.673 3.729 3.729v1.541c0 2.057-1.673 3.73-3.729 3.73h4.729v-23c0-.155.036-.309.105-.447l1.277-2.553h-56.764l1.276 2.553c.07.138.106.292.106.447zm2 0c0-.552.448-1 1-1h48c.552 0 1 .448 1 1v10c0 .552-.448 1-1 1h-48c-.552 0-1-.448-1-1z" fill="#ffffff" data-original="#000000" style="" class=""/><path d="m8 25c0 .551.449 1 1 1h5v-3.307l-6-2.25z" fill="#ffffff" data-original="#000000" style="" class=""/><path d="m35 35h8v8h-8z" fill="#ffffff" data-original="#000000" style="" class=""/><path d="m49 35h8v8h-8z" fill="#ffffff" data-original="#000000" style="" class=""/><path d="m60 31h-56c-.551 0-1 .449-1 1v28c0 .552.449 1 1 1h56c.551 0 1-.448 1-1v-28c0-.551-.449-1-1-1zm-43 26c0 1.103-.897 2-2 2h-8c-1.103 0-2-.897-2-2v-8c0-1.103.897-2 2-2h8c1.103 0 2 .897 2 2zm0-14c0 1.103-.897 2-2 2h-8c-1.103 0-2-.897-2-2v-8c0-1.103.897-2 2-2h8c1.103 0 2 .897 2 2zm14 14c0 1.103-.897 2-2 2h-8c-1.103 0-2-.897-2-2v-8c0-1.103.897-2 2-2h8c1.103 0 2 .897 2 2zm0-14c0 1.103-.897 2-2 2h-8c-1.103 0-2-.897-2-2v-8c0-1.103.897-2 2-2h8c1.103 0 2 .897 2 2zm14 14c0 1.103-.897 2-2 2h-8c-1.103 0-2-.897-2-2v-8c0-1.103.897-2 2-2h8c1.103 0 2 .897 2 2zm0-14c0 1.103-.897 2-2 2h-8c-1.103 0-2-.897-2-2v-8c0-1.103.897-2 2-2h8c1.103 0 2 .897 2 2zm14 14c0 1.103-.897 2-2 2h-8c-1.103 0-2-.897-2-2v-8c0-1.103.897-2 2-2h8c1.103 0 2 .897 2 2zm0-14c0 1.103-.897 2-2 2h-8c-1.103 0-2-.897-2-2v-8c0-1.103.897-2 2-2h8c1.103 0 2 .897 2 2z" fill="#ffffff" data-original="#000000" style="" class=""/><path d="m49 49h8v8h-8z" fill="#ffffff" data-original="#000000" style="" class=""/><path d="m53.933 22.033-3.933.787v3.36l3.931.786c1.062.214 2.069-.629 2.069-1.695v-1.541c0-1.067-1.022-1.908-2.067-1.697z" fill="#ffffff" data-original="#000000" style="" class=""/><path d="m16 24h32v1h-32z" fill="#ffffff" data-original="#000000" style="" class=""/></g></g></svg>
